<?xml version="1.0" encoding="utf-8"?>
<!-- Generator: Adobe Illustrator 24.1.2, SVG Export Plug-In . SVG Version: 6.00 Build 0)  -->
<svg version="1.1" id="Слой_1" xmlns="http://www.w3.org/2000/svg" xmlns:xlink="http://www.w3.org/1999/xlink" x="0px" y="0px"
	 viewBox="0 0 4864.1 1406.2" style="enable-background:new 0 0 4864.1 1406.2;" xml:space="preserve">
<style type="text/css">
	.st0{fill:#0058C9;}
</style>
<path id="path" class="st0" d="M677.3,466.5c-28.3,10.2-52.8,48.5-64.7,100.8c-4.3,19.1-8.3,51.3-8.3,66.8v10.8L591.5,665
	c-35.7,55.6-68.4,113.5-99.1,175.2c-27.3,54.6-30.1,61.3-30.1,71c0,4.3,1.1,9.9,2.2,12.2c3.6,6.6,12.2,13.4,21.8,17l8.8,3.4
	l357.4-0.1c347.5,0,357.4-0.2,362.9-2.9c17.9-9.3,23.6-28.4,14.4-48.3c-35-76.3-82.6-162.9-126-229.7l-10.5-16.2l-1.2-18.5
	c-4.8-71-19.8-114.5-50.5-146.3c-13.3-13.6-18.4-16.7-27.8-16.8c-13.1,0-21.9,6-41.5,28.6c-19.3,22.2-23.3,27.5-36.7,47.4
	c-6.6,9.7-14.8,21-18.2,25l-6.2,7.4h-64.2l-64.2-0.1l-13-19.9c-24.8-38.3-65.6-84.8-77.2-88C685.6,463.2,686.9,463.1,677.3,466.5z
	 M718.2,683.7c4.9,3.4,6.2,6.5,7.9,20.7c2.2,16.8,4.2,19.1,15.1,17.8c9.9-1.2,17.9,2,22.4,9.1c8.8,14.2-6.3,44-27.8,54.5
	c-7.7,3.9-10.5,4.3-23.5,4.3c-12.5,0-15.8-0.6-21.6-3.7c-17.1-9-27.6-22.1-32-39.4c-2.2-9.1-2.3-11.9-0.6-19.9
	c2.3-11.6,6.3-19.3,13.6-27.5C684.6,685.4,708.8,677,718.2,683.7z M991.4,685.1c4.8,4,5.1,5.3,7.4,23.8c1.4,11.3,4.8,14.7,13.9,13.3
	c8.8-1.2,16.4,1.2,21.5,7.1c8.3,10,3.4,29.3-11.4,45.1c-11.9,12.7-19.3,15.6-38,15.8c-14.2,0-16-0.3-23.5-4.5
	c-11.1-6.2-21.1-16.4-26.2-26.9c-3.4-7-4.5-11.4-4.9-21.5c-0.5-11.6,0-13.7,4.2-22.5c7.7-16.7,19.5-27,35.7-31.3
	C981.1,680.3,986.3,680.7,991.4,685.1z"/>
<g>
	<path d="M1804.3,939.2V464h88.3v475.3H1804.3z M1883,827.2l-4.8-104.5L2127.5,464h99.1l-207.1,220l-48.9,53.6L1883,827.2z
		 M2135.6,939.2l-182-216.6l58.4-64.5l226.8,281.1L2135.6,939.2L2135.6,939.2z"/>
	<path d="M2438.4,944c-37.1,0-70.2-8-99.1-24.1c-29-16.1-51.8-38.1-68.6-66.2c-16.8-28.1-25.1-60-25.1-95.7
		c0-36.2,8.4-68.2,25.1-96.1c16.7-27.8,39.6-49.7,68.6-65.5c29-15.8,62-23.8,99.1-23.8c37.6,0,70.9,7.9,100.1,23.8
		c29.2,15.9,52.1,37.6,68.6,65.2c16.5,27.6,24.8,59.8,24.8,96.4c0,35.8-8.3,67.7-24.8,95.7c-16.5,28.1-39.4,50.1-68.6,66.2
		C2509.3,936,2476,944,2438.4,944z M2438.4,871.3c20.8,0,39.4-4.5,55.7-13.6c16.3-9,29.1-22.2,38.4-39.4
		c9.3-17.2,13.9-37.3,13.9-60.4c0-23.5-4.6-43.8-13.9-60.8c-9.3-17-22.1-30-38.4-39c-16.3-9-34.6-13.6-55-13.6
		c-20.8,0-39.3,4.5-55.3,13.6c-16.1,9-28.9,22.1-38.4,39c-9.5,17-14.3,37.2-14.3,60.8c0,23.1,4.8,43.2,14.3,60.4
		c9.5,17.2,22.3,30.3,38.4,39.4C2399.8,866.8,2418,871.3,2438.4,871.3z"/>
	<path d="M2665.2,647.3v-67.9h241.7v67.9H2665.2z M2849.8,944c-39.8,0-70.6-10.3-92.3-30.9c-21.7-20.6-32.6-51-32.6-91.3V496.6h84.9
		v323.2c0,17.2,4.4,30.5,13.2,40.1c8.8,9.5,21.1,14.3,37,14.3c19,0,34.9-5,47.5-14.9l23.8,60.4c-9.9,8.2-22.2,14.3-36.7,18.3
		C2880.1,941.9,2865.2,944,2849.8,944z"/>
	<path d="M3110.5,944c-27.2,0-50.9-4.6-71.3-13.9c-20.4-9.3-36.1-22.2-47.2-38.7c-11.1-16.5-16.6-35.2-16.6-56
		c0-20.4,4.9-38.7,14.6-55c9.7-16.3,25.7-29.2,47.9-38.7c22.2-9.5,51.6-14.3,88.3-14.3h105.2v56.3h-99.1c-29,0-48.4,4.7-58.4,13.9
		c-10,9.3-14.9,20.7-14.9,34.3c0,15.4,6.1,27.6,18.3,36.7c12.2,9.1,29.2,13.6,50.9,13.6c20.8,0,39.5-4.8,56-14.3
		c16.5-9.5,28.4-23.5,35.6-42.1l14.3,50.9c-8.1,21.3-22.7,37.8-43.8,49.6C3169.3,938.1,3142.7,944,3110.5,944z M3224.6,939.2v-73.3
		l-4.8-15.6V722c0-24.9-7.5-44.2-22.4-58c-14.9-13.8-37.6-20.7-67.9-20.7c-20.4,0-40.4,3.2-60.1,9.5c-19.7,6.3-36.3,15.2-49.9,26.5
		l-33.3-61.8c19.4-14.9,42.6-26.1,69.6-33.6c26.9-7.5,54.9-11.2,83.8-11.2c52.5,0,93.1,12.6,121.9,37.7
		c28.7,25.1,43.1,63.9,43.1,116.4v212.5L3224.6,939.2L3224.6,939.2z"/>
	<path d="M3365.1,647.3v-67.9h241.7v67.9H3365.1z M3549.8,944c-39.8,0-70.6-10.3-92.3-30.9c-21.7-20.6-32.6-51-32.6-91.3V496.6h84.9
		v323.2c0,17.2,4.4,30.5,13.2,40.1c8.8,9.5,21.1,14.3,37,14.3c19,0,34.9-5,47.5-14.9l23.8,60.4c-9.9,8.2-22.2,14.3-36.7,18.3
		C3580.1,941.9,3565.2,944,3549.8,944z"/>
	<path d="M3813.2,944c-30.3,0-59.4-4-87.2-11.9c-27.8-7.9-49.9-17.5-66.2-28.9l32.6-64.5c16.3,10.4,35.8,19,58.4,25.8
		c22.6,6.8,45.3,10.2,67.9,10.2c26.7,0,46-3.6,58-10.9c12-7.2,18-17,18-29.2c0-10-4.1-17.5-12.2-22.8c-8.1-5.2-18.8-9.2-31.9-11.9
		c-13.1-2.7-27.7-5.2-43.8-7.5c-16.1-2.3-32.1-5.3-48.2-9.2c-16.1-3.8-30.7-9.5-43.8-17c-13.1-7.5-23.8-17.5-31.9-30.2
		c-8.1-12.7-12.2-29.4-12.2-50.2c0-23.1,6.6-43.1,19.7-60.1c13.1-17,31.6-30.1,55.3-39.4c23.8-9.3,51.9-13.9,84.5-13.9
		c24.4,0,49.1,2.7,74,8.1c24.9,5.4,45.5,13.1,61.8,23.1l-32.6,64.5c-17.2-10.4-34.5-17.5-51.9-21.4c-17.4-3.8-34.7-5.8-51.9-5.8
		c-25.8,0-44.9,3.9-57.4,11.5c-12.4,7.7-18.7,17.4-18.7,29.2c0,10.9,4.1,19,12.2,24.4c8.1,5.4,18.8,9.7,31.9,12.9
		c13.1,3.2,27.7,5.8,43.8,7.8c16.1,2,32,5.1,47.9,9.2c15.8,4.1,30.4,9.6,43.8,16.6c13.3,7,24.1,16.9,32.3,29.5
		c8.1,12.7,12.2,29.2,12.2,49.6c0,22.6-6.7,42.3-20,59.1c-13.4,16.8-32.3,29.8-56.7,39C3876.4,939.3,3847.2,944,3813.2,944z"/>
	<path d="M4204.3,944c-30.8,0-57.9-5.8-81.5-17.3c-23.5-11.5-41.9-29.2-55-53c-13.1-23.8-19.7-53.7-19.7-90V576.7h84.9v195.5
		c0,32.6,7.4,56.9,22.1,73c14.7,16.1,35.6,24.1,62.8,24.1c19.9,0,37.2-4.1,51.9-12.2c14.7-8.1,26.2-20.4,34.6-36.7
		c8.4-16.3,12.6-36.4,12.6-60.4V576.7h84.9v362.5H4321v-97.8l14.3,29.9c-12.2,23.5-30.1,41.5-53.6,54
		C4258.1,937.8,4232.3,944,4204.3,944z"/>
</g>
</svg>
