<svg
    xmlns="http://www.w3.org/2000/svg"
    viewBox="0 0 512 512"
    id="vector">
    <path
        id="path"
        d="M 145.3 101.9 C 127 108.5 111.1 133.3 103.4 167.2 C 100.6 179.6 98 200.4 98 210.5 L 98 217.5 L 89.7 230.5 C 66.6 266.5 45.4 304 25.5 344 C 7.8 379.4 6 383.7 6 390 C 6 392.8 6.7 396.4 7.4 397.9 C 9.7 402.2 15.3 406.6 21.5 408.9 L 27.2 411.1 L 258.7 411 C 483.8 411 490.2 410.9 493.8 409.1 C 505.4 403.1 509.1 390.7 503.1 377.8 C 480.4 328.4 449.6 272.3 421.5 229 L 414.7 218.5 L 413.9 206.5 C 410.8 160.5 401.1 132.3 381.2 111.7 C 372.6 102.9 369.3 100.9 363.2 100.8 C 354.7 100.8 349 104.7 336.3 119.3 C 323.8 133.7 321.2 137.1 312.5 150 C 308.2 156.3 302.9 163.6 300.7 166.2 L 296.7 171 L 255.1 171 L 213.5 170.9 L 205.1 158 C 189 133.2 162.6 103.1 155.1 101 C 150.7 99.8 151.5 99.7 145.3 101.9 Z M 171.8 242.6 C 175 244.8 175.8 246.8 176.9 256 C 178.3 266.9 179.6 268.4 186.7 267.5 C 193.1 266.7 198.3 268.8 201.2 273.4 C 206.9 282.6 197.1 301.9 183.2 308.7 C 178.2 311.2 176.4 311.5 168 311.5 C 159.9 311.5 157.8 311.1 154 309.1 C 142.9 303.3 136.1 294.8 133.3 283.6 C 131.9 277.7 131.8 275.9 132.9 270.7 C 134.4 263.2 137 258.2 141.7 252.9 C 150 243.7 165.7 238.3 171.8 242.6 Z M 348.8 243.5 C 351.9 246.1 352.1 246.9 353.6 258.9 C 354.5 266.2 356.7 268.4 362.6 267.5 C 368.3 266.7 373.2 268.3 376.5 272.1 C 381.9 278.6 378.7 291.1 369.1 301.3 C 361.4 309.5 356.6 311.4 344.5 311.5 C 335.3 311.5 334.1 311.3 329.3 308.6 C 322.1 304.6 315.6 298 312.3 291.2 C 310.1 286.7 309.4 283.8 309.1 277.3 C 308.8 269.8 309.1 268.4 311.8 262.7 C 316.8 251.9 324.4 245.2 334.9 242.4 C 342.1 240.4 345.5 240.7 348.8 243.5 Z"
        fill="#0059c8"
        stroke-width="1"/>
</svg>
